<?xml version="1.0" encoding="UTF-8" standalone="no"?><!DOCTYPE svg PUBLIC "-//W3C//DTD SVG 1.1//EN" "http://www.w3.org/Graphics/SVG/1.1/DTD/svg11.dtd"><svg width="100%" height="100%" viewBox="0 0 461 385" version="1.1" xmlns="http://www.w3.org/2000/svg" xmlns:xlink="http://www.w3.org/1999/xlink" xml:space="preserve" xmlns:serif="http://www.serif.com/" style="fill-rule:evenodd;clip-rule:evenodd;stroke-linecap:round;stroke-linejoin:round;stroke-miterlimit:1;"><path id="G" d="M343,80c-41.813,0 -78.299,30.415 -97.69,75.557c-9.423,21.937 -14.81,47.351 -14.81,74.443c0,27.513 5.568,53.307 15.282,75.484c19.514,44.555 55.763,74.516 97.218,74.516c62.132,0 112.5,-67.157 112.5,-150l-112.5,0" style="fill:none;stroke:#d0a264;stroke-width:10px;"/><path id="S" d="M230,80c-0,-41.421 -50.368,-75 -112.5,-75c-62.09,0 -112.5,33.606 -112.5,75c0,41.421 50.368,68.665 112.5,75c0,0 0,-0 0,0c4.987,0.465 9.894,1.068 14.701,1.806c55.557,8.534 97.799,35.071 97.799,73.194c-0,41.394 -50.41,75 -112.5,75c-62.132,0 -112.5,-33.579 -112.5,-75" style="fill:none;stroke:#d0a264;stroke-width:10px;"/></svg>