<?xml version="1.0" encoding="UTF-8" standalone="no"?><!DOCTYPE svg PUBLIC "-//W3C//DTD SVG 1.1//EN"
        "http://www.w3.org/Graphics/SVG/1.1/DTD/svg11.dtd">
<svg width="100%" height="100%" viewBox="0 0 1771 1688" version="1.1" xmlns="http://www.w3.org/2000/svg"
     xmlns:xlink="http://www.w3.org/1999/xlink" xml:space="preserve" xmlns:serif="http://www.serif.com/"
     style="fill-rule:evenodd;clip-rule:evenodd;stroke-linejoin:round;stroke-miterlimit:2;">
    <path d="M957.824,1601.3c-57.483,-57.454 -86.2,-148.979 -86.2,-274.583l0,-403.437c0,-126.767 28.438,-218.6 85.313,-275.475c56.871,-56.871 148.091,-85.305 273.696,-85.305l215.045,0c108.996,0 188.975,22.517 239.929,67.534c50.93,45.041 78.788,117.908 83.53,218.6l0,5.333c0,22.521 -11.854,33.767 -35.546,33.767c-23.713,0 -36.738,-12.438 -39.096,-37.321c-3.554,-79.367 -23.992,-134.767 -61.312,-166.171c-37.326,-31.383 -99.838,-47.1 -187.505,-47.1l-215.046,0c-71.091,0 -127.075,9.192 -167.954,27.55c-40.871,18.383 -70.504,48.288 -88.862,89.75c-18.384,41.488 -27.546,97.746 -27.546,168.838l0,403.437c0,104.275 21.608,178.033 64.871,221.267c43.237,43.266 116.991,64.871 221.266,64.871l213.271,0c63.988,0 114.021,-7.692 150.179,-23.105c36.134,-15.383 61.9,-41.158 77.309,-77.312c15.387,-36.125 23.104,-86.196 23.104,-150.175l0,-120.854l-213.271,-1.779c-24.879,0 -37.321,-12.442 -37.321,-37.321c0,-24.879 12.442,-37.321 37.321,-37.321l250.592,1.775c24.887,0 37.329,12.442 37.329,37.321l0,158.179c0,114.937 -25.496,197.883 -76.425,248.812c-50.954,50.959 -133.908,76.425 -248.817,76.425l-213.271,0c-125.604,0 -217.129,-28.716 -274.583,-86.2" style="fill:#d0a264;fill-rule:nonzero;"/>
    <path d="M73.875,1051.12c-49.258,-49.229 -73.875,-127.275 -73.875,-234.079c0,-10.679 3.563,-19.579 10.679,-26.696c7.125,-7.125 16.025,-10.683 26.704,-10.683c10.68,0 19.58,3.558 26.7,10.683c7.121,7.117 10.684,16.017 10.684,26.696c0,86.641 17.491,147.162 52.508,181.571c34.992,34.429 95.817,51.62 182.458,51.62l256.33,0c86.608,0 147.437,-17.191 182.454,-51.62c34.991,-34.409 52.512,-94.93 52.512,-181.571c0,-86.609 -17.521,-147.129 -52.512,-181.563c-35.017,-34.408 -95.846,-51.621 -182.455,-51.621l-250.991,0c-102.071,0 -176.529,-23.145 -223.396,-69.425c-46.896,-46.283 -70.312,-120.433 -70.312,-222.508c0,-102.046 23.416,-176.225 70.312,-222.508c46.867,-46.279 120.738,-69.421 221.617,-69.421l261.671,0c100.85,0 174.725,23.142 221.616,69.421c46.867,46.283 70.313,119.879 70.313,220.729c0,10.679 -3.559,19.579 -10.679,26.7c-7.121,7.121 -16.021,10.679 -26.705,10.679c-10.679,0 -19.579,-3.558 -26.7,-10.679c-7.116,-7.121 -10.679,-16.021 -10.679,-26.7c0,-79.492 -16.325,-135.283 -48.954,-167.325c-32.65,-32.042 -88.721,-48.063 -168.212,-48.063l-261.671,0c-79.517,0 -135.588,16.021 -168.217,48.063c-32.65,32.042 -48.95,88.417 -48.95,169.104c0,80.717 16.3,137.067 48.95,169.108c32.629,32.038 89.283,48.059 169.996,48.059l250.992,0c107.97,0 186.6,24.646 235.858,73.875c49.229,49.258 73.871,127.275 73.871,234.075c0,106.804 -24.642,184.85 -73.871,234.079c-49.258,49.258 -127.888,73.875 -235.859,73.875l-256.329,0c-108,0 -186.629,-24.617 -235.858,-73.875"
          style="fill:#d0a264;fill-rule:nonzero;"/>
</svg>